#N canvas 1263 309 450 300 12;
#X obj 132 226 makenote 64 250;
#X msg 196 187 71;
#X msg 126 179 64;
#X obj 126 142 t b b;
#X obj 126 114 bng 15 250 50 0 empty empty empty 17 7 0 10 -262144
-1 -1;
#X obj 123 79 spigot;
#X floatatom 58 125 5 0 0 0 - - -;
#X obj 143 265 noteout 1;
#X floatatom 161 48 5 0 0 0 - - -;
#X obj 115 23 == 100;
#X floatatom 54 17 5 0 0 0 - - -;
#X connect 0 0 7 0;
#X connect 0 1 7 1;
#X connect 1 0 0 0;
#X connect 2 0 0 0;
#X connect 3 0 2 0;
#X connect 3 1 1 0;
#X connect 4 0 3 0;
#X connect 5 0 4 0;
#X connect 5 0 6 0;
#X connect 8 0 5 1;
#X connect 8 0 5 0;
#X connect 9 0 8 0;
#X connect 10 0 9 0;
