#N canvas 887 120 789 372 10;
#X obj 72 24 midiin;
#X obj 67 182 midiout;
#X msg 146 19 read dialup.mid;
#X msg 153 47 stop;
#X msg 233 161 bang;
#X obj 238 128 bng 15 250 50 0 empty empty empty 17 7 0 10 -262144
-1 -1;
#X msg 156 72 stop;
#X msg 159 98 pause;
#X obj 248 234 noteout;
#X floatatom 264 201 5 0 0 0 - - -;
#X obj 7 9 cyclone;
#X obj 142 151 seq dialup.mid;
#X obj 475 96 bng 15 250 50 0 empty empty empty 0 -6 0 10 -228856 -1
-1;
#X obj 363 34 bng 22 250 50 0 empty bng_play empty 17 7 0 10 -216373
-66577 -1;
#X obj 408 97 midiout;
#X obj 364 97 print;
#X msg 400 37 stop;
#X obj 364 68 cyclone/seq dialup.mid;
#X obj 414 233 netsend 1;
#X msg 419 200 connect 192.168.8.170 10000;
#X obj 354 139 bng 15 250 50 0 empty empty empty 17 7 0 10 -262144
-1 -1;
#X msg 413 154 send \$1;
#X obj 387 131 sel 128;
#X obj 972 124 bng 15 250 50 0 empty empty empty 0 -6 0 10 -228856
-1 -1;
#X obj 860 62 bng 22 250 50 0 empty bng_play empty 17 7 0 10 -216373
-66577 -1;
#X obj 905 125 midiout;
#X obj 861 125 print;
#X msg 897 65 stop;
#X obj 861 96 cyclone/seq dialup.mid;
#X obj 910 246 netsend 1;
#X msg 914 214 connect 192.168.8.170 10000;
#X obj 851 167 bng 15 250 50 0 empty empty empty 17 7 0 10 -262144
-1 -1;
#X msg 910 182 send \$1;
#X obj 1130 249 netsend 1;
#X msg 1135 216 connect 192.168.8.169 10000;
#X obj 884 159 sel 64 128;
#X msg 1131 185 send \$1;
#X obj 652 276 netsend 1;
#X msg 661 207 send "hi";
#X msg 657 240 connect 255.255.255.255 10000;
#X connect 0 0 1 0;
#X connect 0 0 11 0;
#X connect 2 0 11 0;
#X connect 3 0 11 0;
#X connect 4 0 11 0;
#X connect 5 0 4 0;
#X connect 6 0 11 0;
#X connect 7 0 11 0;
#X connect 11 0 9 0;
#X connect 11 0 1 0;
#X connect 11 1 5 0;
#X connect 13 0 17 0;
#X connect 16 0 17 0;
#X connect 17 0 14 0;
#X connect 17 0 15 0;
#X connect 17 0 20 0;
#X connect 17 0 22 0;
#X connect 17 1 12 0;
#X connect 19 0 18 0;
#X connect 21 0 18 0;
#X connect 22 0 21 0;
#X connect 24 0 28 0;
#X connect 27 0 28 0;
#X connect 28 0 25 0;
#X connect 28 0 26 0;
#X connect 28 0 31 0;
#X connect 28 0 35 0;
#X connect 28 1 23 0;
#X connect 30 0 29 0;
#X connect 32 0 29 0;
#X connect 34 0 33 0;
#X connect 35 0 32 0;
#X connect 35 1 36 0;
#X connect 36 0 33 0;
#X connect 38 0 39 0;
#X connect 39 0 37 0;
