#N canvas 964 94 952 982 12;
#X obj 107 20 notein;
#X floatatom 107 50 5 0 0 0 - - -;
#X floatatom 126 77 5 0 0 0 - - -;
#X floatatom 146 104 5 0 0 0 - - -;
#X floatatom 224 218 5 0 0 0 - - -;
#X msg 224 143 send Hi;
#X obj 224 192 netsend 1;
#X floatatom 93 400 5 0 0 0 - - -;
#X floatatom 109 427 5 0 0 0 - - -;
#X floatatom 125 454 5 0 0 0 - - -;
#X obj 93 370 ctlin;
#X floatatom 276 345 5 0 0 0 - - -;
#X msg 276 269 send Hi;
#X obj 276 319 netsend 1;
#X floatatom 325 458 5 0 0 0 - - -;
#X msg 325 382 send Hi;
#X obj 325 432 netsend 1;
#X floatatom 482 204 5 0 0 0 - - -;
#X obj 482 178 netsend 1;
#X obj 225 96 tgl 15 0 empty empty empty 17 7 0 10 -258113 -1 -1 0
1;
#X obj 225 118 sel 1;
#X obj 276 221 tgl 15 0 empty empty empty 17 7 0 10 -4160 -1 -1 0 1
;
#X obj 276 243 sel 1;
#X obj 225 68 sel 48 49 50 51 44 45 46 47;
#X obj 326 358 tgl 15 0 empty empty empty 17 7 0 10 -260097 -1 -1 0
1;
#X obj 479 106 tgl 15 0 empty empty empty 17 7 0 10 -4160 -1 -1 0 1
;
#X floatatom 541 310 5 0 0 0 - - -;
#X msg 541 234 send Hi;
#X obj 541 284 netsend 1;
#X msg 559 260 connect 192.168.8.255 10000;
#X obj 538 212 tgl 15 0 empty empty empty 17 7 0 10 -262144 -1 -1 0
1;
#X floatatom 590 412 5 0 0 0 - - -;
#X msg 590 336 send Hi;
#X obj 590 386 netsend 1;
#X msg 608 362 connect 192.168.8.255 10000;
#X obj 587 314 tgl 15 0 empty empty empty 17 7 0 10 -262144 -1 -1 0
1;
#X floatatom 378 568 5 0 0 0 - - -;
#X msg 378 492 send Hi;
#X obj 378 542 netsend 1;
#X obj 379 468 tgl 15 0 empty empty empty 17 7 0 10 -262144 -1 -1 0
1;
#X floatatom 638 520 5 0 0 0 - - -;
#X msg 638 444 send Hi;
#X obj 638 494 netsend 1;
#X msg 656 470 connect 192.168.8.169 10000;
#X obj 639 420 tgl 15 0 empty empty empty 17 7 0 10 -262144 -1 -1 0
1;
#X msg 242 168 connect 192.168.8.169 10000;
#X msg 396 518 connect 192.168.8.255 10000;
#X msg 343 408 connect 192.168.8.170 10000;
#X msg 294 295 connect 192.168.8.228 10000;
#X msg 500 154 connect 192.168.8.228 10000;
#X msg 482 128 send servo;
#X connect 0 0 1 0;
#X connect 0 1 2 0;
#X connect 0 2 3 0;
#X connect 1 0 23 0;
#X connect 5 0 6 0;
#X connect 6 0 4 0;
#X connect 10 0 7 0;
#X connect 10 1 8 0;
#X connect 10 2 9 0;
#X connect 12 0 13 0;
#X connect 13 0 11 0;
#X connect 15 0 16 0;
#X connect 16 0 14 0;
#X connect 18 0 17 0;
#X connect 19 0 20 0;
#X connect 20 0 5 0;
#X connect 21 0 22 0;
#X connect 22 0 12 0;
#X connect 23 0 19 0;
#X connect 23 1 21 0;
#X connect 23 2 24 0;
#X connect 23 3 39 0;
#X connect 23 4 25 0;
#X connect 24 0 15 0;
#X connect 25 0 50 0;
#X connect 27 0 28 0;
#X connect 28 0 26 0;
#X connect 29 0 28 0;
#X connect 32 0 33 0;
#X connect 33 0 31 0;
#X connect 34 0 33 0;
#X connect 37 0 38 0;
#X connect 38 0 36 0;
#X connect 41 0 42 0;
#X connect 42 0 40 0;
#X connect 43 0 42 0;
#X connect 45 0 6 0;
#X connect 46 0 38 0;
#X connect 47 0 16 0;
#X connect 48 0 13 0;
#X connect 49 0 18 0;
#X connect 50 0 18 0;
