#N canvas 0 90 1920 990 12;
#X obj 107 20 notein;
#X floatatom 107 50 5 0 0 0 - - -;
#X floatatom 126 77 5 0 0 0 - - -;
#X floatatom 146 104 5 0 0 0 - - -;
#X msg 242 168 connect 192.168.8.170 10000;
#X floatatom 224 218 5 0 0 0 - - -;
#X msg 224 143 send Hi;
#X obj 224 192 netsend 1;
#X floatatom 93 400 5 0 0 0 - - -;
#X floatatom 109 427 5 0 0 0 - - -;
#X floatatom 125 454 5 0 0 0 - - -;
#X obj 93 370 ctlin;
#X floatatom 249 377 5 0 0 0 - - -;
#X msg 249 301 send Hi;
#X obj 249 351 netsend 1;
#X msg 267 327 connect 192.168.8.169 10000;
#X obj 225 96 tgl 15 0 empty empty empty 17 7 0 10 -262144 -1 -1 0
1;
#X obj 225 118 sel 1;
#X obj 249 247 tgl 15 0 empty empty empty 17 7 0 10 -262144 -1 -1 0
1;
#X obj 249 269 sel 1;
#X floatatom 480 254 5 0 0 0 - - -;
#X msg 480 178 send Hi;
#X obj 480 228 netsend 1;
#X obj 480 130 tgl 15 0 empty empty empty 17 7 0 10 -262144 -1 -1 0
1;
#X obj 480 152 sel 1;
#X floatatom 507 423 5 0 0 0 - - -;
#X msg 507 347 send Hi;
#X obj 507 397 netsend 1;
#X msg 525 373 connect 192.168.8.255 10000;
#X obj 507 299 tgl 15 0 empty empty empty 17 7 0 10 -262144 -1 -1 0
1;
#X obj 507 321 sel 1;
#X obj 225 68 sel 48 49 50 51;
#X msg 498 204 connect 192.168.8.228 10000;
#X connect 0 0 1 0;
#X connect 0 1 2 0;
#X connect 0 2 3 0;
#X connect 1 0 31 0;
#X connect 4 0 7 0;
#X connect 6 0 7 0;
#X connect 7 0 5 0;
#X connect 11 0 8 0;
#X connect 11 1 9 0;
#X connect 11 2 10 0;
#X connect 13 0 14 0;
#X connect 14 0 12 0;
#X connect 15 0 14 0;
#X connect 16 0 17 0;
#X connect 17 0 6 0;
#X connect 18 0 19 0;
#X connect 19 0 13 0;
#X connect 21 0 22 0;
#X connect 22 0 20 0;
#X connect 23 0 24 0;
#X connect 24 0 21 0;
#X connect 26 0 27 0;
#X connect 27 0 25 0;
#X connect 28 0 27 0;
#X connect 29 0 30 0;
#X connect 30 0 26 0;
#X connect 31 0 16 0;
#X connect 31 1 18 0;
#X connect 31 2 23 0;
#X connect 31 3 29 0;
#X connect 32 0 22 0;
