#N canvas 551 190 450 300 12;
#X obj 24 16 import mrpeach;
#X obj 325 75 udpreceive 9001;
#X obj 326 118 unpackOSC;
#X obj 326 166 print;
#X msg 89 110 disconnect;
#X obj 27 236 udpsend;
#X floatatom 103 140 5 0 0 0 - - -;
#X obj 103 200 packOSC;
#X msg 103 168 send /test \$1;
#X msg 27 76 connect 192.168.8.128 9001;
#X connect 1 0 2 0;
#X connect 2 0 3 0;
#X connect 4 0 5 0;
#X connect 6 0 8 0;
#X connect 7 0 5 0;
#X connect 8 0 7 0;
#X connect 9 0 5 0;
