#N canvas 1122 357 450 300 12;
#X msg 156 18 devices;
#X msg 227 97 close;
#X msg 188 61 open 0;
#X obj 140 148 comport 0 9600;
#X obj 212 226 print;
#X floatatom 134 253 5 0 0 0 - - -;
#X obj 145 186 pack f;
#X connect 0 0 3 0;
#X connect 1 0 3 0;
#X connect 2 0 3 0;
#X connect 3 0 6 0;
#X connect 6 0 4 0;
#X connect 6 0 5 0;
